<?xml version="1.0" encoding="UTF-8" standalone="no"?>
<!-- Created with Inkscape (http://www.inkscape.org/) -->

<svg
   width="48"
   height="48"
   viewBox="0 0 12.7 12.7"
   version="1.1"
   id="svg5"
   inkscape:version="1.2.2 (732a01da63, 2022-12-09)"
   sodipodi:docname="slimak.svg"
   xmlns:inkscape="http://www.inkscape.org/namespaces/inkscape"
   xmlns:sodipodi="http://sodipodi.sourceforge.net/DTD/sodipodi-0.dtd"
   xmlns="http://www.w3.org/2000/svg"
   xmlns:svg="http://www.w3.org/2000/svg">
  <sodipodi:namedview
     id="namedview7"
     pagecolor="#505050"
     bordercolor="#ffffff"
     borderopacity="1"
     inkscape:showpageshadow="0"
     inkscape:pageopacity="0"
     inkscape:pagecheckerboard="1"
     inkscape:deskcolor="#505050"
     inkscape:document-units="mm"
     showgrid="false"
     inkscape:zoom="7.9421344"
     inkscape:cx="29.777889"
     inkscape:cy="30.596309"
     inkscape:window-width="1920"
     inkscape:window-height="986"
     inkscape:window-x="-11"
     inkscape:window-y="-11"
     inkscape:window-maximized="1"
     inkscape:current-layer="layer1" />
  <defs
     id="defs2" />
  <g
     inkscape:label="Warstwa 1"
     inkscape:groupmode="layer"
     id="layer1">
    <path
       sodipodi:type="spiral"
       style="fill:none;fill-rule:evenodd;stroke:#000000;stroke-width:1.32292;stroke-dasharray:none"
       id="path3109"
       sodipodi:cx="50.128174"
       sodipodi:cy="110.80965"
       sodipodi:expansion="1"
       sodipodi:revolution="3"
       sodipodi:radius="55.127216"
       sodipodi:argument="-18.404255"
       sodipodi:t0="0"
       d="m 50.128174,110.80965 c 2.494449,1.19053 -0.374141,3.94983 -1.978744,4.14594 -4.348374,0.53143 -6.823751,-4.40326 -6.313134,-8.10343 0.913373,-6.61874 8.194319,-9.932597 14.228108,-8.48033 8.854829,2.13126 13.108864,12.02788 10.647526,20.35279 -3.280576,11.0958 -15.875355,16.31237 -26.477473,12.81472 C 26.892773,127.1379 20.704783,111.81017 25.25254,98.937186 30.760482,83.346283 48.839054,76.182282 63.979378,81.788073 81.821725,88.394305 89.964482,109.23411 83.295686,126.63959 75.596297,146.73492 51.988671,155.85821 32.319483,148.1231 9.9701016,139.33397 -0.13497582,112.95408 8.6687836,91.022212 18.545271,66.417975 47.700562,55.330228 71.894352,65.204317 98.754044,76.166428 110.82513,108.09942 99.879442,134.55457"
       transform="matrix(0.08101997,0,0,0.08101997,0.96166627,-2.8912541)" />
    <path
       style="fill:#ffcc00;fill-opacity:1;fill-rule:evenodd;stroke:#000000;stroke-width:0.0857458;stroke-linejoin:bevel;stroke-dasharray:none"
       d="M 9.3363601,6.7888878 9.1149702,7.918748 c 0,0 -0.6718089,0.8855613 -0.9466382,1.0840475 C 7.8935009,9.2012871 5.3971246,9.3387018 5.3360512,9.3234321 5.274976,9.3080964 4.3741451,9.3157643 4.3741451,9.3157643 L 3.7252398,9.2470569 c 0,0 -0.4351476,0.1145182 -0.3130009,0.3130009 0.1221503,0.198488 0.3282688,0.2366595 0.3282688,0.2366595 0,0 1.0382492,0.1679434 1.1298583,0.1374147 C 4.96197,9.903568 6.9468626,9.842528 6.9468626,9.842528 L 8.5805777,9.796717 c 0,0 0.9008328,-0.3435366 1.0382474,-0.5114888 C 9.7562398,9.1172851 11.023514,7.2316355 11.008246,7.1247584 10.99291,7.0178724 11.809834,5.2620177 11.626614,5.2162105 11.536205,5.1936349 11.481353,4.7364539 11.077736,4.696756 10.663417,4.655974 10.038704,4.773434 10.038704,4.773434 c 0,0 -0.404611,0.7405162 -0.3893431,0.8321254 0.015336,0.091604 -0.3130008,1.183296 -0.3130008,1.183296 z"
       id="path3167"
       sodipodi:nodetypes="ccssccscsccsssscsc" />
    <path
       style="fill:#ac9393;fill-opacity:1;fill-rule:evenodd;stroke:#000000;stroke-width:0.0539815;stroke-linejoin:bevel;stroke-dasharray:none"
       d="M 5.5015355,9.3078486 C 6.8491014,8.9904913 7.8105296,7.9387004 7.9420793,6.6379225 7.9588415,6.47244 7.9497471,6.0719617 7.9256737,5.9185784 7.8744597,5.5913011 7.7892576,5.321101 7.644801,5.0278779 7.510828,4.7559017 7.3544613,4.5342497 7.1431734,4.3167811 6.7308242,3.892372 6.2110808,3.6307385 5.6040936,3.5420289 5.4794646,3.5237866 5.0962799,3.5237509 4.9617095,3.5418987 4.1996003,3.6447724 3.5431056,4.0531575 3.1668701,4.658415 3.0485181,4.8488144 2.9338983,5.1242268 2.8850595,5.3355683 2.8349512,5.552386 2.8180106,5.8767994 2.8452938,6.0967092 2.9939249,7.2943441 4.0351271,8.0992576 5.1431732,7.8731012 5.815649,7.735847 6.3174229,7.2547531 6.4533076,6.6169715 6.4862436,6.4624023 6.4861544,6.207989 6.4530651,6.0514904 6.3606766,5.6139248 6.1154113,5.2822982 5.7559202,5.1088305 5.4978603,4.9843085 5.2262728,4.9607344 4.9551294,5.0393029 4.625172,5.134919 4.381401,5.3756211 4.3083961,5.677887 c -0.02509,0.1038545 -0.018046,0.3044788 0.013731,0.3928247 0.074824,0.2076645 0.1957597,0.3408725 0.3567217,0.3929014 0.080245,0.025946 0.2164093,0.019455 0.2835867,-0.013552 0.062609,-0.030743 0.1425503,-0.1069039 0.1713136,-0.1632892 0.026249,-0.051446 0.029013,-0.1294436 0.00624,-0.1736139 -0.015514,-0.030065 -0.069135,-0.075894 -0.088751,-0.075894 -0.00535,0 -0.020257,0.021737 -0.033168,0.048343 L 4.9945851,6.13395 5.0206201,6.159985 C 5.0517371,6.19112 5.0481351,6.213482 5.0031451,6.2680122 4.9226696,6.3656432 4.7975609,6.3913928 4.6753767,6.3354534 4.5193809,6.2640355 4.4063375,6.0558076 4.4079709,5.8429147 4.4102891,5.5406988 4.6256766,5.2741632 4.9564865,5.1641334 5.2442869,5.0684104 5.5172206,5.1010967 5.7975494,5.2648316 5.8938252,5.3210743 6.0553918,5.4748696 6.1269915,5.5784423 6.3011582,5.8303894 6.3876763,6.1631947 6.3564165,6.4610025 6.3048281,6.9524302 6.0091423,7.3708048 5.5470663,7.6061537 4.8918734,7.9398648 4.106388,7.8189128 3.5660128,7.3011025 3.239752,6.988469 3.0418132,6.6018124 2.9687459,6.1344153 2.9448686,5.9816828 2.9448864,5.6817102 2.9687566,5.5276082 3.10396,4.6551125 3.7635789,3.9522025 4.6635967,3.721531 4.8972944,3.661633 5.0231449,3.646422 5.2855487,3.646368 c 0.2618493,-6.42e-5 0.3750586,0.013909 0.6136957,0.075929 0.7134007,0.1852744 1.3047366,0.6783373 1.643373,1.3702644 0.1035692,0.2116197 0.1507888,0.3385597 0.2045207,0.5499101 0.06967,0.2740144 0.080726,0.3708305 0.080851,0.7078656 8.2e-5,0.3155365 -0.00874,0.4036363 -0.064677,0.642384 C 7.4210003,8.454066 5.9518778,9.4330321 4.3786709,9.2481251 3.5887898,9.1552908 2.8536393,8.7590102 2.317624,8.1371385 1.8614595,7.6079066 1.5748859,6.9450013 1.4891881,6.2207872 1.4667374,6.0310102 1.4639199,5.632834 1.4838384,5.4596409 1.5669006,4.7363006 1.8310681,4.1092183 2.2898469,3.5463942 2.4122112,3.396283 2.6549408,3.1570004 2.8154232,3.0282878 3.4224889,2.5413948 4.1421361,2.2527278 4.9401219,2.1760316 5.1555861,2.1553285 5.5644973,2.1610526 5.7714413,2.1878009 6.0623641,2.2253554 6.3924981,2.3063491 6.660569,2.405972 6.8145498,2.4631954 7.1194263,2.6088468 7.2692254,2.696754 7.8452381,3.0347787 8.3368013,3.5200008 8.6858677,4.0951291 9.3678535,5.2187872 9.5082443,6.6037133 9.0634977,7.8203965 9.0142452,7.9551185 9.0175085,7.9500185 8.8335484,8.1802959 8.5088906,8.5866945 8.2080121,8.9154215 8.1196484,8.9602747 7.9810211,9.0306404 7.5717552,9.1066768 6.8888635,9.1889259 6.4798989,9.2381783 5.7791555,9.305994 5.4907345,9.3242363 l -0.080976,0.00517 z"
       id="path5268" />
    <path
       sodipodi:type="spiral"
       style="fill:none;fill-rule:evenodd;stroke:#000000;stroke-width:1.32292;stroke-dasharray:none"
       id="path5684"
       sodipodi:cx="96.876762"
       sodipodi:cy="66.094742"
       sodipodi:expansion="1"
       sodipodi:revolution="1"
       sodipodi:radius="8.5750732"
       sodipodi:argument="-5.7081132"
       sodipodi:t0="0"
       d="m 96.876762,66.094742 c 1.082358,0.701528 -0.411648,1.805106 -1.165985,1.79895 -2.044207,-0.01668 -2.891637,-2.449583 -2.431914,-4.130921 0.822336,-3.00752 4.391552,-4.101252 7.095857,-3.064879 3.96867,1.520921 5.3395,6.357258 3.69784,10.060792"
       transform="matrix(0.08101997,0,0,0.08101997,1.9765251,-1.0018882)" />
    <path
       sodipodi:type="spiral"
       style="fill:none;fill-rule:evenodd;stroke:#000000;stroke-width:1.32292;stroke-dasharray:none"
       id="path5684-9"
       sodipodi:cx="96.876762"
       sodipodi:cy="66.094742"
       sodipodi:expansion="1"
       sodipodi:revolution="1"
       sodipodi:radius="8.5750732"
       sodipodi:argument="-5.7081132"
       sodipodi:t0="0"
       d="m 96.876762,66.094742 c 1.082358,0.701528 -0.411648,1.805106 -1.165985,1.79895 -2.044207,-0.01668 -2.891637,-2.449583 -2.431914,-4.130921 0.822336,-3.00752 4.391552,-4.101252 7.095857,-3.064879 3.96867,1.520921 5.3395,6.357258 3.69784,10.060792"
       transform="matrix(-0.07275917,-0.03564182,-0.03564182,0.07275917,21.275775,3.2770465)" />
    <ellipse
       style="fill:#ffffff;fill-opacity:1;fill-rule:evenodd;stroke:#000000;stroke-width:0.0428732;stroke-linejoin:bevel;stroke-dasharray:none"
       id="path7212"
       cx="10.260098"
       cy="5.3002181"
       rx="0.27483043"
       ry="0.26719627" />
    <ellipse
       style="fill:#ffffff;fill-opacity:1;fill-rule:evenodd;stroke:#000000;stroke-width:0.0428732;stroke-linejoin:bevel;stroke-dasharray:none"
       id="path7212-6"
       cx="11.164225"
       cy="5.36796"
       rx="0.27483043"
       ry="0.26719627" />
    <ellipse
       style="fill:#000000;fill-opacity:1;fill-rule:evenodd;stroke:#000000;stroke-width:0.0428732;stroke-linejoin:bevel;stroke-dasharray:none"
       id="path7346"
       cx="10.262733"
       cy="5.3490696"
       rx="0.070176341"
       ry="0.11606085" />
    <ellipse
       style="fill:#000000;fill-opacity:1;fill-rule:evenodd;stroke:#000000;stroke-width:0.0428732;stroke-linejoin:bevel;stroke-dasharray:none"
       id="path7346-9"
       cx="11.164225"
       cy="5.4219475"
       rx="0.070176341"
       ry="0.11606085" />
    <rect
       style="fill:#000000;fill-opacity:1;fill-rule:evenodd;stroke:#000000;stroke-width:0.0428732;stroke-linejoin:bevel;stroke-dasharray:none"
       id="rect7431"
       width="0.90846729"
       height="0.038170889"
       x="10.168485"
       y="5.9033217"
       rx="0.89609766"
       ry="0.038170889" />
  </g>
</svg>
